<mxfile host="app.diagrams.net" agent="Mozilla/5.0 (Windows NT 10.0; Win64; x64; rv:129.0) Gecko/20100101 Firefox/129.0" version="24.7.7">
  <diagram name="第 1 页" id="Mxlg9R-_DanIa_SPwrr2">
    <mxGraphModel dx="1804" dy="1762" grid="1" gridSize="10" guides="1" tooltips="1" connect="1" arrows="1" fold="1" page="1" pageScale="1" pageWidth="827" pageHeight="1169" math="0" shadow="0">
      <root>
        <mxCell id="0" />
        <mxCell id="1" parent="0" />
        <mxCell id="HeMSonpPW7Ne78LdU7Pu-18" value="" style="edgeStyle=orthogonalEdgeStyle;rounded=0;orthogonalLoop=1;jettySize=auto;html=1;" edge="1" parent="1" source="HeMSonpPW7Ne78LdU7Pu-15" target="HeMSonpPW7Ne78LdU7Pu-16">
          <mxGeometry relative="1" as="geometry" />
        </mxCell>
        <mxCell id="HeMSonpPW7Ne78LdU7Pu-15" value="&lt;font style=&quot;font-size: 23px;&quot;&gt;Start&lt;/font&gt;" style="whiteSpace=wrap;html=1;aspect=fixed;rounded=1;shadow=1;" vertex="1" parent="1">
          <mxGeometry x="-710" y="-1120" width="60" height="60" as="geometry" />
        </mxCell>
        <mxCell id="HeMSonpPW7Ne78LdU7Pu-19" value="" style="edgeStyle=orthogonalEdgeStyle;rounded=0;orthogonalLoop=1;jettySize=auto;html=1;" edge="1" parent="1" source="HeMSonpPW7Ne78LdU7Pu-16" target="HeMSonpPW7Ne78LdU7Pu-17">
          <mxGeometry relative="1" as="geometry" />
        </mxCell>
        <mxCell id="HeMSonpPW7Ne78LdU7Pu-20" value="&lt;strong&gt;界面&lt;/strong&gt;:" style="edgeLabel;html=1;align=center;verticalAlign=middle;resizable=0;points=[];" vertex="1" connectable="0" parent="HeMSonpPW7Ne78LdU7Pu-19">
          <mxGeometry x="-0.0667" relative="1" as="geometry">
            <mxPoint as="offset" />
          </mxGeometry>
        </mxCell>
        <mxCell id="HeMSonpPW7Ne78LdU7Pu-16" value="板块管理工具" style="rounded=1;whiteSpace=wrap;html=1;" vertex="1" parent="1">
          <mxGeometry x="-580" y="-1115" width="100" height="50" as="geometry" />
        </mxCell>
        <mxCell id="HeMSonpPW7Ne78LdU7Pu-22" value="" style="edgeStyle=orthogonalEdgeStyle;rounded=0;orthogonalLoop=1;jettySize=auto;html=1;" edge="1" parent="1" source="HeMSonpPW7Ne78LdU7Pu-17" target="HeMSonpPW7Ne78LdU7Pu-21">
          <mxGeometry relative="1" as="geometry" />
        </mxCell>
        <mxCell id="HeMSonpPW7Ne78LdU7Pu-17" value="管理员访问板块管理页面" style="rounded=1;whiteSpace=wrap;html=1;shadow=0;glass=1;" vertex="1" parent="1">
          <mxGeometry x="-420" y="-1120" width="120" height="60" as="geometry" />
        </mxCell>
        <mxCell id="HeMSonpPW7Ne78LdU7Pu-27" style="edgeStyle=orthogonalEdgeStyle;rounded=0;orthogonalLoop=1;jettySize=auto;html=1;" edge="1" parent="1" source="HeMSonpPW7Ne78LdU7Pu-21" target="HeMSonpPW7Ne78LdU7Pu-25">
          <mxGeometry relative="1" as="geometry" />
        </mxCell>
        <mxCell id="HeMSonpPW7Ne78LdU7Pu-29" value="&lt;strong&gt;设置&lt;/strong&gt;:" style="edgeLabel;html=1;align=center;verticalAlign=middle;resizable=0;points=[];" vertex="1" connectable="0" parent="HeMSonpPW7Ne78LdU7Pu-27">
          <mxGeometry x="0.0151" relative="1" as="geometry">
            <mxPoint x="-6" y="-8" as="offset" />
          </mxGeometry>
        </mxCell>
        <mxCell id="HeMSonpPW7Ne78LdU7Pu-21" value="创建/管理板块" style="rounded=1;whiteSpace=wrap;html=1;" vertex="1" parent="1">
          <mxGeometry x="-250" y="-1115" width="100" height="50" as="geometry" />
        </mxCell>
        <mxCell id="HeMSonpPW7Ne78LdU7Pu-24" value="添加子板块、设置权限" style="rounded=1;whiteSpace=wrap;html=1;shadow=0;glass=1;" vertex="1" parent="1">
          <mxGeometry x="-340" y="-1000" width="120" height="60" as="geometry" />
        </mxCell>
        <mxCell id="HeMSonpPW7Ne78LdU7Pu-25" value="名称、描述、父板块（如果有）" style="rounded=1;whiteSpace=wrap;html=1;shadow=0;glass=1;" vertex="1" parent="1">
          <mxGeometry x="-190" y="-1000" width="120" height="60" as="geometry" />
        </mxCell>
        <mxCell id="HeMSonpPW7Ne78LdU7Pu-26" style="edgeStyle=orthogonalEdgeStyle;rounded=0;orthogonalLoop=1;jettySize=auto;html=1;entryX=0.56;entryY=-0.007;entryDx=0;entryDy=0;entryPerimeter=0;" edge="1" parent="1" source="HeMSonpPW7Ne78LdU7Pu-21" target="HeMSonpPW7Ne78LdU7Pu-24">
          <mxGeometry relative="1" as="geometry" />
        </mxCell>
        <mxCell id="HeMSonpPW7Ne78LdU7Pu-28" value="&lt;strong&gt;操作&lt;/strong&gt;" style="edgeLabel;html=1;align=center;verticalAlign=middle;resizable=0;points=[];" vertex="1" connectable="0" parent="HeMSonpPW7Ne78LdU7Pu-26">
          <mxGeometry x="0.0558" y="-3" relative="1" as="geometry">
            <mxPoint x="10" y="-5" as="offset" />
          </mxGeometry>
        </mxCell>
        <mxCell id="HeMSonpPW7Ne78LdU7Pu-38" style="edgeStyle=orthogonalEdgeStyle;rounded=0;orthogonalLoop=1;jettySize=auto;html=1;entryX=1;entryY=0.5;entryDx=0;entryDy=0;" edge="1" parent="1" source="HeMSonpPW7Ne78LdU7Pu-30" target="HeMSonpPW7Ne78LdU7Pu-35">
          <mxGeometry relative="1" as="geometry" />
        </mxCell>
        <mxCell id="HeMSonpPW7Ne78LdU7Pu-42" value="&lt;strong&gt;保存&lt;/strong&gt;:" style="edgeLabel;html=1;align=center;verticalAlign=middle;resizable=0;points=[];" vertex="1" connectable="0" parent="HeMSonpPW7Ne78LdU7Pu-38">
          <mxGeometry x="0.3721" y="-1" relative="1" as="geometry">
            <mxPoint x="-7" y="1" as="offset" />
          </mxGeometry>
        </mxCell>
        <mxCell id="HeMSonpPW7Ne78LdU7Pu-30" value="保存并更新板块信息" style="rounded=1;whiteSpace=wrap;html=1;" vertex="1" parent="1">
          <mxGeometry x="-250" y="-870" width="100" height="50" as="geometry" />
        </mxCell>
        <mxCell id="HeMSonpPW7Ne78LdU7Pu-31" style="edgeStyle=orthogonalEdgeStyle;rounded=0;orthogonalLoop=1;jettySize=auto;html=1;entryX=0.448;entryY=-0.048;entryDx=0;entryDy=0;entryPerimeter=0;" edge="1" parent="1" source="HeMSonpPW7Ne78LdU7Pu-24" target="HeMSonpPW7Ne78LdU7Pu-30">
          <mxGeometry relative="1" as="geometry" />
        </mxCell>
        <mxCell id="HeMSonpPW7Ne78LdU7Pu-34" style="edgeStyle=orthogonalEdgeStyle;rounded=0;orthogonalLoop=1;jettySize=auto;html=1;entryX=0.44;entryY=-0.032;entryDx=0;entryDy=0;entryPerimeter=0;" edge="1" parent="1" source="HeMSonpPW7Ne78LdU7Pu-25" target="HeMSonpPW7Ne78LdU7Pu-30">
          <mxGeometry relative="1" as="geometry" />
        </mxCell>
        <mxCell id="HeMSonpPW7Ne78LdU7Pu-40" style="edgeStyle=orthogonalEdgeStyle;rounded=0;orthogonalLoop=1;jettySize=auto;html=1;exitX=0.5;exitY=1;exitDx=0;exitDy=0;entryX=0.5;entryY=1;entryDx=0;entryDy=0;" edge="1" parent="1" source="HeMSonpPW7Ne78LdU7Pu-35" target="HeMSonpPW7Ne78LdU7Pu-37">
          <mxGeometry relative="1" as="geometry" />
        </mxCell>
        <mxCell id="HeMSonpPW7Ne78LdU7Pu-43" value="&lt;strong&gt;更新&lt;/strong&gt;" style="edgeLabel;html=1;align=center;verticalAlign=middle;resizable=0;points=[];" vertex="1" connectable="0" parent="HeMSonpPW7Ne78LdU7Pu-40">
          <mxGeometry x="0.3295" y="1" relative="1" as="geometry">
            <mxPoint as="offset" />
          </mxGeometry>
        </mxCell>
        <mxCell id="HeMSonpPW7Ne78LdU7Pu-35" value="将板块数据保存到数据库" style="rounded=1;whiteSpace=wrap;html=1;shadow=0;glass=1;" vertex="1" parent="1">
          <mxGeometry x="-473" y="-900" width="120" height="60" as="geometry" />
        </mxCell>
        <mxCell id="HeMSonpPW7Ne78LdU7Pu-36" value="名称、描述、父板块（如果有）" style="rounded=1;whiteSpace=wrap;html=1;shadow=0;glass=1;" vertex="1" parent="1">
          <mxGeometry x="-190" y="-1000" width="120" height="60" as="geometry" />
        </mxCell>
        <mxCell id="HeMSonpPW7Ne78LdU7Pu-47" value="" style="edgeStyle=orthogonalEdgeStyle;rounded=0;orthogonalLoop=1;jettySize=auto;html=1;" edge="1" parent="1" source="HeMSonpPW7Ne78LdU7Pu-37" target="HeMSonpPW7Ne78LdU7Pu-46">
          <mxGeometry relative="1" as="geometry" />
        </mxCell>
        <mxCell id="HeMSonpPW7Ne78LdU7Pu-37" value="刷新板块结构" style="rounded=1;whiteSpace=wrap;html=1;shadow=0;glass=1;" vertex="1" parent="1">
          <mxGeometry x="-520" y="-1000" width="120" height="60" as="geometry" />
        </mxCell>
        <mxCell id="HeMSonpPW7Ne78LdU7Pu-46" value="&lt;font style=&quot;font-size: 22px;&quot;&gt;Next&lt;/font&gt;" style="whiteSpace=wrap;html=1;aspect=fixed;rounded=1;shadow=1;" vertex="1" parent="1">
          <mxGeometry x="-640" y="-1000" width="60" height="60" as="geometry" />
        </mxCell>
      </root>
    </mxGraphModel>
  </diagram>
</mxfile>
